<?xml version="1.0" encoding="utf-8"?>
<!-- Generator: Adobe Illustrator 18.1.1, SVG Export Plug-In . SVG Version: 6.00 Build 0)  -->
<!DOCTYPE svg PUBLIC "-//W3C//DTD SVG 1.1//EN" "http://www.w3.org/Graphics/SVG/1.1/DTD/svg11.dtd">
<svg version="1.1" id="Layer_1" xmlns="http://www.w3.org/2000/svg" xmlns:xlink="http://www.w3.org/1999/xlink" x="0px" y="0px"
	 viewBox="0 0 162.9 23" enable-background="new 0 0 162.9 23" xml:space="preserve">
<g>
	<path fill="#F13A21" d="M44.9,13.3C44.7,13.1,33.3,1.9,33.3,1.9c0,0,0,0,0,0c0,0,0,0,0,0c-0.1-0.1-0.1-0.1-0.2-0.2
		c-0.1-0.1-0.1-0.1-0.2-0.2c0,0,0,0,0,0c0,0-0.1-0.1-0.1-0.1c-0.1-0.1-0.2-0.2-0.3-0.3c-0.1,0-0.1-0.1-0.2-0.1
		c-0.1-0.1-0.2-0.1-0.3-0.2c-0.1,0-0.1-0.1-0.2-0.1c-0.1,0-0.2-0.1-0.3-0.1c-0.1,0-0.2-0.1-0.3-0.1c-0.1,0-0.2-0.1-0.2-0.1
		c-0.1,0-0.2-0.1-0.3-0.1c-0.1,0-0.2,0-0.2-0.1c-0.1,0-0.2,0-0.3-0.1c-0.1,0-0.2,0-0.2,0c-0.1,0-0.2,0-0.3,0c-0.1,0-0.2,0-0.3,0
		c-0.1,0-0.2,0-0.3,0c-0.1,0-0.2,0-0.3,0c-0.1,0-0.2,0-0.3,0c-0.1,0-0.2,0-0.3,0c-0.1,0-0.2,0-0.2,0c-0.1,0-0.2,0-0.3,0.1
		c-0.1,0-0.2,0-0.2,0.1c-0.1,0-0.2,0.1-0.3,0.1c-0.1,0-0.2,0.1-0.2,0.1c-0.1,0-0.2,0.1-0.3,0.1c-0.1,0-0.2,0.1-0.3,0.1
		c-0.1,0-0.1,0.1-0.2,0.1c-0.1,0.1-0.2,0.1-0.3,0.2c-0.1,0-0.1,0.1-0.2,0.1c-0.1,0.1-0.2,0.2-0.3,0.3c0,0-0.1,0.1-0.1,0.1
		c0,0,0,0,0,0c-0.1,0.1-0.1,0.1-0.2,0.2c0,0-0.1,0.1-0.1,0.1l0,0l-0.1,0.1c-4.1,4-10.6,4-14.7,0L10,1.7l0,0c-2.2-2.2-5.7-2.4-8-0.3
		c-2.4,2.1-2.6,5.7-0.4,8C1.6,9.6,13.2,21,13.2,21l0,0c0.4,0.4,0.8,0.7,1.2,0.9c0,0,0,0,0.1,0c0.1,0.1,0.3,0.2,0.4,0.2
		c0.1,0,0.1,0,0.2,0.1c0.1,0,0.2,0.1,0.4,0.1c0.1,0,0.1,0,0.2,0.1c0.1,0,0.2,0.1,0.3,0.1c0.1,0,0.2,0,0.3,0.1c0.1,0,0.2,0,0.3,0.1
		c0.1,0,0.2,0,0.3,0c0.1,0,0.2,0,0.3,0c0.1,0,0.2,0,0.3,0c0.1,0,0.2,0,0.3,0c0.1,0,0.2,0,0.3,0c0.1,0,0.2,0,0.3,0
		c0.1,0,0.2,0,0.3-0.1c0.1,0,0.2,0,0.3-0.1c0.1,0,0.2-0.1,0.3-0.1c0.1,0,0.1,0,0.2-0.1c0.1,0,0.2-0.1,0.4-0.1c0.1,0,0.1,0,0.2-0.1
		c0.1-0.1,0.3-0.1,0.4-0.2c0,0,0,0,0.1,0c0.4-0.3,0.8-0.6,1.2-0.9l0,0l0.1-0.1c4.1-4,10.6-4,14.7,0l0.1,0.1l0,0
		c2.2,2.2,5.7,2.3,8,0.3c1.3-1.2,2-2.8,1.9-4.5C46.3,15.6,45.8,14.3,44.9,13.3z"/>
	<g>
		<path fill="#F13A21" d="M50.6,14.6c0-2.7,0.7-4.8,2-6.2c1.3-1.4,3.2-2.2,5.6-2.2c1.2,0,2.4,0.2,3.5,0.5c0.6,0.2,1.1,0.8,1.1,1.5v0
			c0,1-0.9,1.7-1.9,1.5c-0.7-0.1-1.4-0.2-2.1-0.2c-1.5,0-2.6,0.3-3.3,1c-0.7,0.7-1.1,2-1.1,4c0,2,0.4,3.3,1.1,4c0.7,0.7,1.8,1,3.3,1
			c0.7,0,1.4-0.1,2.1-0.2c1-0.2,1.9,0.5,1.9,1.5v0c0,0.7-0.4,1.3-1.1,1.5c-1.2,0.4-2.3,0.6-3.5,0.6c-2.4,0-4.3-0.7-5.6-2.2
			C51.3,19.4,50.6,17.3,50.6,14.6z"/>
		<path fill="#F13A21" d="M66.6,20.8V2.3c0-1.1,0.9-1.9,1.9-1.9h0c1.1,0,1.9,0.9,1.9,1.9v2.1c0,1.1,0.9,2,2.1,1.9
			c0.4,0,0.7-0.1,1.1-0.1c2.2,0,4,0.6,5.2,1.8c1.3,1.2,1.9,2.8,1.9,5v7.8c0,1.1-0.9,1.9-1.9,1.9h0c-1.1,0-1.9-0.9-1.9-1.9v-8.2
			c0-0.4,0-0.8-0.1-1.1c-0.1-0.3-0.2-0.6-0.5-0.9c-0.2-0.3-0.6-0.6-1.2-0.7c-0.6-0.2-1.3-0.2-2.1-0.2c-0.3,0-0.6,0-0.9,0
			c-1,0.1-1.7,0.9-1.7,1.9v9.1c0,1.1-0.9,1.9-1.9,1.9h0C67.5,22.8,66.6,21.9,66.6,20.8z"/>
		<path fill="#F13A21" d="M84.3,17.4c0-0.3,0-0.7,0.1-1c0.1-0.3,0.2-0.8,0.5-1.3c0.3-0.5,0.6-1,1.1-1.4c0.5-0.4,1.1-0.7,2-1
			c0.9-0.3,2-0.4,3.2-0.4c0,0,0,0,0,0c1.7,0,2-2.6,0.3-2.8c-0.3,0-0.6-0.1-0.9-0.1c-1.1,0-2.1,0.1-3,0.3c-0.9,0.2-1.7-0.5-1.7-1.4
			V8.1c0-0.6,0.4-1.2,1-1.4c1.2-0.3,2.5-0.5,3.9-0.5c2.3,0,4,0.6,5.2,1.8c1.2,1.2,1.8,2.9,1.8,5.1v4.4c0,1.5-0.6,2.8-1.7,3.9
			S93.5,23,91.2,23c-2.4,0-4.1-0.5-5.2-1.6C84.9,20.3,84.3,19,84.3,17.4z M88.1,17c0,1.7,1,2.6,3,2.6c0,0,0,0,0,0
			c1.9,0,2.9-0.8,2.9-2.5v-0.8c0-0.7-0.6-1.4-1.3-1.4c-0.4,0-0.7-0.1-1-0.1C89.4,14.8,88.2,15.5,88.1,17z"/>
		<path fill="#F13A21" d="M101.4,14.4c0-2.6,0.6-4.7,1.9-6.1c1.3-1.4,3.1-2.1,5.5-2.1c0.2,0,0.4,0,0.6,0c1.1,0.1,2-0.8,2-1.9V2.2
			c0-1.1,0.9-1.9,1.9-1.9h0c1.1,0,1.9,0.9,1.9,1.9v15.3c0,1.5-0.6,2.8-1.7,3.9c-1.1,1.1-2.8,1.6-5.1,1.6c-0.5,0-1.1,0-1.6-0.1
			c-0.5-0.1-1.1-0.3-1.8-0.7s-1.3-0.8-1.8-1.4c-0.5-0.6-1-1.4-1.3-2.5S101.4,15.9,101.4,14.4z M105.3,14.2c0,1.9,0.2,3.3,0.7,4.1
			c0.5,0.9,1.3,1.3,2.6,1.3c1.9,0,2.9-0.6,2.9-1.8v-6.6c0-1-0.8-1.9-1.8-1.9c-0.3,0-0.5,0-0.8,0c-1.2,0-2.1,0.4-2.7,1.1
			C105.6,11.1,105.3,12.4,105.3,14.2z"/>
		<path fill="#F13A21" d="M119.2,14.4c0-2.6,0.6-4.7,1.9-6.1c1.3-1.4,3.1-2.1,5.5-2.1c0.2,0,0.4,0,0.6,0c1.1,0.1,2-0.8,2-1.9V2.2
			c0-1.1,0.9-1.9,1.9-1.9h0c1.1,0,1.9,0.9,1.9,1.9v15.3c0,1.5-0.6,2.8-1.7,3.9c-1.1,1.1-2.8,1.6-5.1,1.6c-0.5,0-1.1,0-1.6-0.1
			c-0.5-0.1-1.1-0.3-1.8-0.7c-0.7-0.4-1.3-0.8-1.8-1.4s-1-1.4-1.3-2.5S119.2,15.9,119.2,14.4z M123.1,14.2c0,1.9,0.2,3.3,0.7,4.1
			c0.5,0.9,1.3,1.3,2.6,1.3c1.9,0,2.9-0.6,2.9-1.8v-6.6c0-1-0.8-1.9-1.8-1.9c-0.3,0-0.5,0-0.8,0c-1.2,0-2.1,0.4-2.7,1.1
			C123.4,11.1,123.1,12.4,123.1,14.2z"/>
		<path fill="#F13A21" d="M136.9,14.8c0-2.6,0.6-4.7,1.7-6.2s3-2.3,5.4-2.3c2.3,0,4.1,0.8,5.3,2.3s1.8,3.4,1.8,5.6
			c0,0.2,0,0.4,0,0.5c0,0.8-0.7,1.5-1.5,1.5h-7c-1.2,0-2,1.4-1.2,2.4c0.1,0.2,0.3,0.3,0.5,0.5c0.7,0.5,1.7,0.7,2.8,0.7
			c1.2,0,2.4-0.2,3.6-0.5c0.9-0.3,1.9,0.4,1.9,1.4v0c0,0.6-0.4,1.2-0.9,1.4c-1.5,0.7-3.3,1-5.1,1c-0.7,0-1.4-0.1-2-0.2
			c-0.6-0.1-1.3-0.4-1.9-0.7c-0.7-0.4-1.2-0.8-1.7-1.4c-0.5-0.6-0.9-1.4-1.2-2.4C137,17.3,136.9,16.1,136.9,14.8z M142.5,13.4h2.7
			c1.1,0,1.8-1.2,1.3-2.2c-0.1-0.2-0.2-0.4-0.4-0.6c-0.5-0.8-1.3-1.2-2.3-1.2s-1.7,0.3-2.2,0.9c-0.2,0.3-0.4,0.6-0.6,1
			C140.7,12.4,141.5,13.4,142.5,13.4z"/>
		<path fill="#F13A21" d="M154.9,21.1V9.1c0-0.7,0.4-1.3,1-1.5c0,0,0,0,0,0c0.5-0.2,1.4-0.4,2.8-0.7c0.8-0.2,1.5-0.3,2.3-0.4
			c1-0.1,1.8,0.6,1.8,1.6v0c0,0.9-0.7,1.6-1.5,1.6c-0.4,0-0.9,0.1-1.2,0.2c-0.8,0.1-1.4,0.8-1.4,1.6v9.6c0,0.9-0.7,1.6-1.6,1.6h-0.6
			C155.6,22.8,154.9,22,154.9,21.1z"/>
	</g>
</g>
</svg>
