<?xml version="1.0" encoding="utf-8"?>
<!-- Generator: Adobe Illustrator 18.1.1, SVG Export Plug-In . SVG Version: 6.00 Build 0)  -->
<!DOCTYPE svg PUBLIC "-//W3C//DTD SVG 1.1//EN" "http://www.w3.org/Graphics/SVG/1.1/DTD/svg11.dtd">
<svg version="1.1" id="Layer_1" xmlns="http://www.w3.org/2000/svg" xmlns:xlink="http://www.w3.org/1999/xlink" x="0px" y="0px"
	 viewBox="0 187.9 660 600" enable-background="new 0 187.9 660 600" xml:space="preserve">
<g>
	<path fill="#FFFFFF" d="M120,787.9c-3.8,0-8.4-1.5-11.5-4.6s-5.4-7.7-5.4-12.3v-98.5H54.6C24.5,672.5,0,647.9,0,617.9l2.3-375.4
		c0-30.1,24.6-54.6,54.6-54.6h547.7c30.1,0,54.6,23.8,55.4,53.9l0,0l-2.3,375.4c0,30.1-24.6,54.6-54.6,54.6H218.5L131.5,781
		C129.9,786.3,125.3,787.9,120,787.9z M58.4,214.8c-15.4,0-27.6,12.3-27.6,27.6l-2.3,375.4c0,15.4,12.3,27.6,27.6,27.6h75.4v96.2
		l76.1-96.2h397.8c15.4,0,27.6-12.3,27.6-27.6l2.3-374.6c-0.8-15.4-13.1-27.6-28.4-27.6H58.4V214.8z"/>
</g>
<g>
	<circle fill="#FFFFFF" cx="211.1" cy="430.9" r="23.2"/>
	<circle fill="#FFFFFF" cx="330" cy="430.9" r="23.2"/>
	<circle fill="#FFFFFF" cx="448.9" cy="430.9" r="23.2"/>
</g>
</svg>
