<svg xmlns="http://www.w3.org/2000/svg" viewBox="0 187.9 660 600" enable-background="new 0 187.9 660 600"><path d="M604.6 187.9H56.9c-29.9 0-54.6 24.5-54.6 54.6L0 617.9c0 29.9 24.5 54.6 54.6 54.6h48.5V771c0 4.6 2.3 9.2 5.4 12.3 3.1 3.1 7.7 4.6 11.5 4.6 5.3 0 9.9-1.6 11.5-6.9l86.9-109.2H603c29.9 0 54.6-24.5 54.6-54.6l2.3-375.4c-.7-30-25.2-53.9-55.3-53.9z"/><g fill="#fff"><circle cx="211.1" cy="430.9" r="23.2"/><circle cx="330" cy="430.9" r="23.2"/><circle cx="448.9" cy="430.9" r="23.2"/></g></svg>