<?xml version="1.0" encoding="utf-8"?>
<!-- Generator: Adobe Illustrator 18.1.1, SVG Export Plug-In . SVG Version: 6.00 Build 0)  -->
<!DOCTYPE svg PUBLIC "-//W3C//DTD SVG 1.1//EN" "http://www.w3.org/Graphics/SVG/1.1/DTD/svg11.dtd">
<svg version="1.1" id="Layer_1" xmlns="http://www.w3.org/2000/svg" xmlns:xlink="http://www.w3.org/1999/xlink" x="0px" y="0px"
	 viewBox="0 187.9 660 600" enable-background="new 0 187.9 660 600" xml:space="preserve">
<path d="M604.6,187.9H56.9c-29.9,0-54.6,24.5-54.6,54.6L0,617.9c0,29.9,24.5,54.6,54.6,54.6h48.5V771c0,4.6,2.3,9.2,5.4,12.3
	c3.1,3.1,7.7,4.6,11.5,4.6c5.3,0,9.9-1.6,11.5-6.9l86.9-109.2h384.6c29.9,0,54.6-24.5,54.6-54.6l2.3-375.4
	C659.2,211.8,634.7,187.9,604.6,187.9z"/>
<g>
	<circle fill="#FFFFFF" cx="211.1" cy="430.9" r="23.2"/>
	<circle fill="#FFFFFF" cx="330" cy="430.9" r="23.2"/>
	<circle fill="#FFFFFF" cx="448.9" cy="430.9" r="23.2"/>
</g>
</svg>
