<svg xmlns="http://www.w3.org/2000/svg" viewBox="0 187.9 660 600" enable-background="new 0 187.9 660 600"><path fill="#fff" d="M120 787.9c-3.8 0-8.4-1.5-11.5-4.6s-5.4-7.7-5.4-12.3v-98.5H54.6C24.5 672.5 0 647.9 0 617.9l2.3-375.4c0-30.1 24.6-54.6 54.6-54.6h547.7c30.1 0 54.6 23.8 55.4 53.9l-2.3 375.4c0 30.1-24.6 54.6-54.6 54.6H218.5l-87 109.2c-1.6 5.3-6.2 6.9-11.5 6.9zM58.4 214.8c-15.4 0-27.6 12.3-27.6 27.6l-2.3 375.4c0 15.4 12.3 27.6 27.6 27.6h75.4v96.2l76.1-96.2h397.8c15.4 0 27.6-12.3 27.6-27.6l2.3-374.6c-.8-15.4-13.1-27.6-28.4-27.6H58.4v-.8z"/><g fill="#fff"><circle cx="211.1" cy="430.9" r="23.2"/><circle cx="330" cy="430.9" r="23.2"/><circle cx="448.9" cy="430.9" r="23.2"/></g></svg>