<?xml version="1.0" encoding="utf-8"?>
<!-- Generator: Adobe Illustrator 18.1.1, SVG Export Plug-In . SVG Version: 6.00 Build 0)  -->
<!DOCTYPE svg PUBLIC "-//W3C//DTD SVG 1.1//EN" "http://www.w3.org/Graphics/SVG/1.1/DTD/svg11.dtd">
<svg version="1.1" id="Layer_1" xmlns="http://www.w3.org/2000/svg" xmlns:xlink="http://www.w3.org/1999/xlink" x="0px" y="0px"
	 viewBox="13.8 -13.4 772.3 604" enable-background="new 13.8 -13.4 772.3 604" xml:space="preserve">
<path fill="#FFFFFF" d="M747.8,48.3H532.3c-6.2-33.3-39.2-61.7-73.2-61.7H313.8c-34.2,0-68.1,28.5-74.2,61.7H51.4
	c-21,0-37.6,16.6-37.6,37.6V553c0,21,16.6,37.6,37.6,37.6h697.2c21,0,37.6-16.6,37.6-37.6V85.9C786.3,65,768.7,48.3,747.8,48.3
	L747.8,48.3z M275.3,48.3c4.3-16.6,21.2-32.8,38.6-32.8h145.2c18.3,0,36.3,16.3,41.5,32.8H275.3z M51.4,561.8
	c-5.2,0-8.8-3.5-8.8-8.8V182.2h714.7v370c-0.9,5.2-4.3,9.6-9.6,9.6H51.4L51.4,561.8z M757.3,85.9v67.3H42.8V85.9
	c0-5.2,3.5-8.8,8.8-8.8h697.2C753.8,77.2,757.3,80.7,757.3,85.9z"/>
</svg>
