<svg xmlns="http://www.w3.org/2000/svg" viewBox="13.8 -13.4 772.3 604" enable-background="new 13.8 -13.4 772.3 604"><path fill="#fff" d="M747.8 48.3H532.3c-6.2-33.3-39.2-61.7-73.2-61.7H313.8c-34.2 0-68.1 28.5-74.2 61.7H51.4c-21 0-37.6 16.6-37.6 37.6V553c0 21 16.6 37.6 37.6 37.6h697.2c21 0 37.6-16.6 37.6-37.6V85.9c.1-20.9-17.5-37.6-38.4-37.6zm-472.5 0c4.3-16.6 21.2-32.8 38.6-32.8h145.2c18.3 0 36.3 16.3 41.5 32.8H275.3zM51.4 561.8c-5.2 0-8.8-3.5-8.8-8.8V182.2h714.7v370c-.9 5.2-4.3 9.6-9.6 9.6H51.4zM757.3 85.9v67.3H42.8V85.9c0-5.2 3.5-8.8 8.8-8.8h697.2c5 .1 8.5 3.6 8.5 8.8z"/></svg>