<?xml version="1.0" encoding="utf-8"?>
<!-- Generator: Adobe Illustrator 18.1.1, SVG Export Plug-In . SVG Version: 6.00 Build 0)  -->
<!DOCTYPE svg PUBLIC "-//W3C//DTD SVG 1.1//EN" "http://www.w3.org/Graphics/SVG/1.1/DTD/svg11.dtd">
<svg version="1.1" id="Layer_1" xmlns="http://www.w3.org/2000/svg" xmlns:xlink="http://www.w3.org/1999/xlink" x="0px" y="0px"
	 viewBox="-327.3 255.8 59.3 59.3" enable-background="new -327.3 255.8 59.3 59.3" xml:space="preserve">
<g>
	<path d="M-297.7,312.1c14.7,0,26.7-12,26.7-26.7c0-14.7-12-26.7-26.7-26.7c-14.7,0-26.7,12-26.7,26.7
		C-324.4,300.2-312.4,312.1-297.7,312.1z M-297.7,264.1c11.8,0,21.4,9.6,21.4,21.4c0,11.8-9.6,21.4-21.4,21.4
		c-11.8,0-21.4-9.6-21.4-21.4C-319.1,273.7-309.5,264.1-297.7,264.1z"/>
	<path d="M-300.3,286c0,0.1,0,0.1,0.1,0.2c0,0.1,0,0.2,0.1,0.3c0,0.1,0.1,0.2,0.1,0.2c0,0.1,0.1,0.1,0.1,0.2
		c0.1,0.1,0.2,0.3,0.3,0.4c0,0,0,0,0,0l10.7,10.7c1,1,2.7,1,3.8,0c1-1,1-2.7,0-3.8l-9.9-9.9v-10.7c0-1.5-1.2-2.7-2.7-2.7
		c-1.5,0-2.7,1.2-2.7,2.7v11.8C-300.4,285.6-300.4,285.8-300.3,286z"/>
</g>
</svg>
