<?xml version="1.0" encoding="utf-8"?>
<!-- Generator: Adobe Illustrator 18.1.1, SVG Export Plug-In . SVG Version: 6.00 Build 0)  -->
<!DOCTYPE svg PUBLIC "-//W3C//DTD SVG 1.1//EN" "http://www.w3.org/Graphics/SVG/1.1/DTD/svg11.dtd">
<svg version="1.1" id="Layer_1" xmlns="http://www.w3.org/2000/svg" xmlns:xlink="http://www.w3.org/1999/xlink" x="0px" y="0px"
	 viewBox="0 0 34 34" enable-background="new 0 0 34 34" xml:space="preserve">
<path fill="#D57CA4" d="M17,34c9.4,0,17-7.6,17-17c0-9.4-7.6-17-17-17C7.6,0,0,7.6,0,17C0,26.4,7.6,34,17,34"/>
<path fill-rule="evenodd" clip-rule="evenodd" fill="#FFFFFF" d="M25.3,15.3c-0.1-0.5-0.3-1.1-0.5-1.6c-0.2-0.5-0.5-1-0.8-1.4
	c-0.3-0.5-0.7-0.9-1-1.3c-0.4-0.4-0.8-0.7-1.3-1c-0.5-0.3-0.9-0.6-1.4-0.8c-0.5-0.2-1.1-0.4-1.6-0.5c-0.6-0.1-1.1-0.2-1.7-0.2
	c-0.6,0-1.2,0.1-1.7,0.2c-0.5,0.1-1.1,0.3-1.6,0.5c-0.5,0.2-1,0.5-1.4,0.8c-0.5,0.3-0.9,0.7-1.3,1c-0.4,0.4-0.7,0.8-1,1.3
	c-0.3,0.5-0.6,0.9-0.8,1.4c-0.2,0.5-0.4,1.1-0.5,1.6c-0.1,0.6-0.2,1.1-0.2,1.7c0,0.6,0.1,1.2,0.2,1.7c0.1,0.5,0.3,1.1,0.5,1.6
	c0.2,0.5,0.5,1,0.8,1.4c0.3,0.5,0.7,0.9,1,1.3c0.4,0.4,0.8,0.7,1.3,1c0.5,0.3,0.9,0.6,1.4,0.8c0.5,0.2,1.1,0.4,1.6,0.5
	c0.6,0.1,1.1,0.2,1.7,0.2c0.6,0,1.2-0.1,1.7-0.2c0.5-0.1,1.1-0.3,1.6-0.5c0.5-0.2,1-0.5,1.4-0.8c0.5-0.3,0.9-0.7,1.3-1
	c0.4-0.4,0.7-0.8,1-1.3c0.3-0.5,0.6-0.9,0.8-1.4c0.2-0.5,0.4-1.1,0.5-1.6c0.1-0.6,0.2-1.1,0.2-1.7C25.5,16.4,25.5,15.9,25.3,15.3z
	 M24.3,16.9c-0.1,0-2.6-0.6-5.1-0.2c-0.1-0.1-0.1-0.2-0.2-0.4c-0.2-0.4-0.3-0.7-0.5-1.1c2.9-1.2,4-2.9,4-2.9
	C23.6,13.6,24.3,15.2,24.3,16.9z M21.8,11.6c0,0-1.1,1.6-3.8,2.6c-1.2-2.3-2.6-4.1-2.7-4.2c0.5-0.1,1.1-0.2,1.7-0.2
	C18.8,9.7,20.5,10.4,21.8,11.6z M15.3,10C15.3,10,15.3,10,15.3,10C15.3,10,15.3,10,15.3,10C15.3,10,15.3,10,15.3,10z M13.9,10.4
	c0.1,0.1,1.4,2,2.7,4.2c-3.5,0.9-6.5,0.9-6.7,0.9C10.4,13.3,11.9,11.4,13.9,10.4z M9.7,17c0-0.1,0-0.2,0-0.2c0.1,0,3.7,0.1,7.5-1
	c0.2,0.4,0.4,0.8,0.6,1.2c-0.1,0-0.2,0.1-0.3,0.1c-3.9,1.3-5.9,4.8-5.9,4.8s0,0,0,0C10.4,20.6,9.7,18.9,9.7,17z M17,24.3
	c-1.8,0-3.4-0.6-4.6-1.7c0.1,0.1,0.2,0.1,0.2,0.1s1.4-3,5.7-4.5c0,0,0,0,0,0c1,2.7,1.4,4.9,1.6,5.5C19,24.1,18,24.3,17,24.3z
	 M21.1,23c-0.1-0.4-0.5-2.6-1.4-5.2c2.3-0.4,4.4,0.3,4.5,0.3C23.9,20.2,22.7,21.9,21.1,23z"/>
</svg>
