<svg xmlns="http://www.w3.org/2000/svg" viewBox="158.7 30.7 706.6 706.6" enable-background="new 158.7 30.7 706.6 706.6"><path stroke="#449FDB" d="M128 0"/><path d="M495.3 285c-52.2-92.7-107.9-168.3-112-173.9-84.2 39.8-147 117.3-166.5 210.7 7.9.2 133.6 1.7 278.5-36.8zm37.6 101.3c4-1.3 7.9-2.4 12-3.6-7.6-17.1-15.8-34.3-24.5-51.2C365 378 215.9 374.7 210.6 374.4c-.1 3.2-.2 6.4-.2 9.6 0 77.6 29.3 148.2 77.4 201.7l-.2-.2c-.1 0 82.5-146.5 245.3-199.2zM326.6 621.8l.1-.1c-2.3-1.8-4.7-3.4-6.8-5.2 3.9 3.2 6.7 5.3 6.7 5.3zM439.8 91.1l-.8.2c.4-.2.7-.2.8-.2zm271.4 66.5C658.1 110.8 588.4 82.3 512 82.3c-24.6 0-48.3 3-71.1 8.5 4.6 6.1 61.2 81.4 112.8 176 113.7-42.6 156.7-108 157.5-109.2zM512 737.3c-195.1 0-353.3-158.2-353.3-353.3S316.9 30.7 512 30.7c195.1 0 353.2 158.2 353.2 353.3S707.1 737.3 512 737.3zm51.3-304C386.2 495 327.7 619.2 326.6 621.7c51.1 40 115.4 64 185.4 64 41.8 0 81.6-8.5 117.7-23.9-4.5-26.4-22-118.9-64.4-229.2-.7.3-1.4.5-2 .7zm13.5-121.5c7.1 14.4 13.8 29 20 43.8 2.2 5.2 4.3 10.4 6.5 15.6 104.2-13.1 206.8 9.1 210.1 9.8-.7-71.5-26.3-137.2-68.6-188.6-.5.9-48.9 70.8-168 119.4zm45 107c39.6 108.9 55.7 197.4 58.7 215.5 67.8-45.8 115.9-118.3 129.3-202.4-5.9-2-90.5-28.8-188-13.1z"/></svg>