<?xml version="1.0" encoding="utf-8"?>
<!-- Generator: Adobe Illustrator 18.1.1, SVG Export Plug-In . SVG Version: 6.00 Build 0)  -->
<!DOCTYPE svg PUBLIC "-//W3C//DTD SVG 1.1//EN" "http://www.w3.org/Graphics/SVG/1.1/DTD/svg11.dtd">
<svg version="1.1" id="Layer_1" xmlns="http://www.w3.org/2000/svg" xmlns:xlink="http://www.w3.org/1999/xlink" x="0px" y="0px"
	 viewBox="0 0 34 34" enable-background="new 0 0 34 34" xml:space="preserve">
<path fill="#65449B" d="M17,34c9.4,0,17-7.6,17-17c0-9.4-7.6-17-17-17C7.6,0,0,7.6,0,17C0,26.4,7.6,34,17,34"/>
<path fill="#FFFFFF" d="M23.9,9.2H10.1c-1.4,0-2.6,1.2-2.6,2.6v10.4c0,1.4,1.2,2.6,2.6,2.6h13.8c1.4,0,2.6-1.2,2.6-2.6V11.8
	C26.5,10.4,25.3,9.2,23.9,9.2z M23.9,11c0.1,0,0.2,0,0.3,0L17,16.8L9.8,11c0.1,0,0.2,0,0.3,0H23.9z M23.9,23H10.1
	c-0.5,0-0.9-0.4-0.9-0.9v-9.4l7.2,5.8c0.2,0.1,0.3,0.2,0.5,0.2s0.4-0.1,0.5-0.2l7.2-5.8v9.4C24.8,22.7,24.4,23,23.9,23z"/>
</svg>
