<?xml version="1.0" encoding="utf-8"?>
<!-- Generator: Adobe Illustrator 18.1.1, SVG Export Plug-In . SVG Version: 6.00 Build 0)  -->
<!DOCTYPE svg PUBLIC "-//W3C//DTD SVG 1.1//EN" "http://www.w3.org/Graphics/SVG/1.1/DTD/svg11.dtd">
<svg version="1.1" id="Layer_1" xmlns="http://www.w3.org/2000/svg" xmlns:xlink="http://www.w3.org/1999/xlink" x="0px" y="0px"
	 viewBox="464.7 351.9 95.3 68.8" enable-background="new 464.7 351.9 95.3 68.8" xml:space="preserve">
<path d="M553.7,351.9h-82.4c-3.4,0-6.2,2.8-6.2,6.2l-0.4,56.4c0,3.4,2.8,6.2,6.2,6.2h82.5c3.4,0,6.2-2.8,6.2-6.2l0.4-56.4
	C559.9,354.6,557.1,351.9,553.7,351.9z M511.9,390.2L472.2,356h80.6L511.9,390.2z M503.5,388.1l8.4,7.2l8.6-7.2l32,28.3h-81
	L503.5,388.1z M468.8,413.5l0.4-55l31.3,26.9L468.8,413.5z M523.4,385.6l32.4-27.1l-0.4,55.4L523.4,385.6z"/>
</svg>
