<?xml version="1.0" encoding="utf-8"?>
<!-- Generator: Adobe Illustrator 18.1.1, SVG Export Plug-In . SVG Version: 6.00 Build 0)  -->
<!DOCTYPE svg PUBLIC "-//W3C//DTD SVG 1.1//EN" "http://www.w3.org/Graphics/SVG/1.1/DTD/svg11.dtd">
<svg version="1.1" id="Layer_1" xmlns="http://www.w3.org/2000/svg" xmlns:xlink="http://www.w3.org/1999/xlink" x="0px" y="0px"
	 viewBox="0 0 34 34" enable-background="new 0 0 34 34" xml:space="preserve">
<path fill="#E48125" d="M17,34c9.4,0,17-7.6,17-17c0-9.4-7.6-17-17-17C7.6,0,0,7.6,0,17C0,26.4,7.6,34,17,34"/>
<path fill="#FFFFFF" d="M21.2,19.1c-0.8,0-1.6,1-1.6,2.2c0,1.2,0.7,2.2,1.6,2.2c0.9,0,1.6-1,1.6-2.2C22.8,20.1,22.1,19.1,21.2,19.1z
	 M26.7,13.4c0.2-0.5,0.2-3-0.8-5.4c0,0-2.2,0.2-5.6,2.5c-0.7-0.2-1.9-0.3-3.1-0.3c-1.2,0-2.4,0.1-3.1,0.3c-3.4-2.3-5.6-2.5-5.6-2.5
	c-1,2.5-1,5-0.8,5.4C6.7,14.6,6,16,6,18.1c0,8.8,7.3,9,9.1,9h2.1h2.1c1.8,0,9.1-0.2,9.1-9C28.6,16.1,27.9,14.6,26.7,13.4L26.7,13.4z
	 M17.3,26L17.3,26C12.6,26,9,25.5,9,21c0-1.1,0.4-2.1,1.3-2.9c1.5-1.4,4.1-0.6,7-0.6l0,0l0,0c2.9,0,5.4-0.8,7,0.6
	c0.9,0.8,1.3,1.8,1.3,2.9C25.6,25.4,22,26,17.3,26z M13.4,19.1c-0.8,0-1.6,1-1.6,2.2c0,1.2,0.7,2.2,1.6,2.2s1.6-1,1.6-2.2
	C15,20.1,14.3,19.1,13.4,19.1z"/>
</svg>
