<svg xmlns="http://www.w3.org/2000/svg" viewBox="-493.7 372.5 29.4 25" enable-background="new -493.7 372.5 29.4 25"><path stroke="#449FDB" d="M-495 369"/><path d="M-473.9 387.1c-1.1 0-2.1 1.3-2.1 2.9 0 1.6.9 2.9 2.1 2.9s2.1-1.3 2.1-2.9c0-1.6-1-2.9-2.1-2.9zm7.2-7.5c.2-.6.2-3.9-1-7.1 0 0-2.9.3-7.3 3.3-.9-.3-2.5-.4-4-.4-1.6 0-3.1.1-4 .4-4.4-3-7.3-3.3-7.3-3.3-1.3 3.2-1.3 6.5-1 7.1-1.5 1.6-2.4 3.5-2.4 6.2 0 11.5 9.5 11.7 11.9 11.7h5.6c2.4 0 11.9-.2 11.9-11.7 0-2.6-.9-4.6-2.4-6.2zm-12.3 16.5c-6.1 0-10.8-.7-10.8-6.6 0-1.4.5-2.7 1.7-3.8 2-1.8 5.3-.8 9.1-.8s7.1-1 9.1.8c1.2 1.1 1.7 2.4 1.7 3.8 0 5.8-4.7 6.6-10.8 6.6zm-5.1-9c-1.1 0-2.1 1.3-2.1 2.9 0 1.6.9 2.9 2.1 2.9s2.1-1.3 2.1-2.9c0-1.6-.9-2.9-2.1-2.9z"/></svg>