<?xml version="1.0" encoding="utf-8"?>
<!-- Generator: Adobe Illustrator 18.1.1, SVG Export Plug-In . SVG Version: 6.00 Build 0)  -->
<!DOCTYPE svg PUBLIC "-//W3C//DTD SVG 1.1//EN" "http://www.w3.org/Graphics/SVG/1.1/DTD/svg11.dtd">
<svg version="1.1" id="Layer_1" xmlns="http://www.w3.org/2000/svg" xmlns:xlink="http://www.w3.org/1999/xlink" x="0px" y="0px"
	 viewBox="0 0 34 34" enable-background="new 0 0 34 34" xml:space="preserve">
<path fill="#1187C9" d="M17,34c9.4,0,17-7.6,17-17c0-9.4-7.6-17-17-17C7.6,0,0,7.6,0,17C0,26.4,7.6,34,17,34"/>
<path fill="#FFFFFF" d="M12.2,24.1H8.9V13.5h3.3V24.1z M10.5,12.2L10.5,12.2c-1.2,0-2-0.8-2-1.8c0-1,0.8-1.8,2-1.8
	c1.2,0,2,0.8,2,1.8C12.5,11.4,11.8,12.2,10.5,12.2z M25.5,24.1h-3.8v-5.5c0-1.4-0.6-2.4-1.9-2.4c-1,0-1.5,0.7-1.8,1.3
	C18,17.7,18,18.1,18,18.4v5.7h-3.7c0,0,0-9.7,0-10.6H18v1.7c0.2-0.7,1.4-1.8,3.3-1.8c2.4,0,4.2,1.5,4.2,4.8V24.1z"/>
</svg>
