<?xml version="1.0" encoding="utf-8"?>
<!-- Generator: Adobe Illustrator 18.1.1, SVG Export Plug-In . SVG Version: 6.00 Build 0)  -->
<!DOCTYPE svg PUBLIC "-//W3C//DTD SVG 1.1//EN" "http://www.w3.org/Graphics/SVG/1.1/DTD/svg11.dtd">
<svg version="1.1" id="Layer_1" xmlns="http://www.w3.org/2000/svg" xmlns:xlink="http://www.w3.org/1999/xlink" x="0px" y="0px"
	 viewBox="476.7 309.9 504.8 459.3" enable-background="new 476.7 309.9 504.8 459.3" xml:space="preserve">
<g enable-background="new    ">
	<path fill="#FFFFFF" d="M499,621.1l10.9-9.7c17.3,21,46.7,41.7,87.1,41.7c64.8,0,81.2-37,81.2-63.5c0-92.6-170.4-46.7-170.4-142.6
		c0-45.4,41.7-71.5,87.9-71.5c41.2,0,71.1,15.1,90.9,39.6l-10.5,9.7c-19.8-25.7-48-36.6-80.4-36.6c-40.8,0-73.2,24.4-73.2,58.9
		c0,79.9,170.4,37.9,170.4,142.6c0,31.6-20.2,76.2-95.9,76.2C553.2,665.7,519.2,646.7,499,621.1z"/>
</g>
<g enable-background="new    ">
	<path fill="#FFFFFF" d="M794.2,660.6V379.9h171.7v12.6H807.7V510h155.3v12.6H807.7v138H794.2z"/>
</g>
</svg>
