<svg xmlns="http://www.w3.org/2000/svg" viewBox="0 0 82.6 85" enable-background="new 0 0 82.6 85"><path fill="#fff" d="M0 57.2l1.6-1.4c2.5 3 6.7 5.9 12.4 5.9 9.2 0 11.6-5.3 11.6-9.1 0-13.2-24.3-6.7-24.3-20.3 0-6.5 5.9-10.2 12.5-10.2 5.9 0 10.1 2.2 13 5.6l-1.5 1.4c-2.8-3.7-6.8-5.2-11.5-5.2C8 24 3.4 27.4 3.4 32.4c0 11.4 24.3 5.4 24.3 20.3 0 4.5-2.9 10.9-13.7 10.9-6.3 0-11.1-2.7-14-6.4zM58.1 62.8v-40h24.5v1.8H60v16.7h22.1v1.8H60v19.7h-1.9z"/><path fill="none" stroke="#fff" stroke-miterlimit="10" d="M42 85V0"/></svg>