<?xml version="1.0" encoding="utf-8"?>
<!-- Generator: Adobe Illustrator 18.1.1, SVG Export Plug-In . SVG Version: 6.00 Build 0)  -->
<!DOCTYPE svg PUBLIC "-//W3C//DTD SVG 1.1//EN" "http://www.w3.org/Graphics/SVG/1.1/DTD/svg11.dtd">
<svg version="1.1" id="Layer_1" xmlns="http://www.w3.org/2000/svg" xmlns:xlink="http://www.w3.org/1999/xlink" x="0px" y="0px"
	 viewBox="197.1 11.5 635.1 745.7" enable-background="new 197.1 11.5 635.1 745.7" xml:space="preserve">
<path fill="#FFFFFF" d="M367.6,290.3h-11.5c-18.4,0-33,14.6-33,33v33h161.3v-33c0-18.4-14.6-33-33-33h-11.5
	c-10,6.9-22.3,10.8-36.1,10.8S377.6,297.2,367.6,290.3z M549.6,198.9h190.5v23.8H549.6V198.9z M549.6,271.1h190.5v23.8H549.6V271.1z
	 M549.6,342.5h190.5v23.8H549.6V342.5z M288.5,485.4h451.6v23.8H288.5V485.4z M288.5,414h451.6v23.8H288.5V414z M288.5,556.8h451.6
	v23.8H288.5V556.8z M288.5,628.2h451.6V652H288.5V628.2z M790,57.6H666.4V43.8c0-17.7-14.6-32.3-32.3-32.3H394.5
	c-17.7,0-32.3,14.6-32.3,32.3v13.8H238.6c-23,0-41.5,18.4-41.5,41.5v616.7c0,23,18.4,41.5,41.5,41.5h552.2c23,0,41.5-18.4,41.5-41.5
	V99.1C831.5,76,813.1,57.6,790,57.6L790,57.6z M389.9,39.2H638v64.5H389.9V39.2z M803.8,728.8H224.8V85.2H363v13.8
	c0,17.7,14.6,32.3,32.3,32.3h238.8c17.7,0,32.3-14.6,32.3-32.3V85.2h138.2v643.6H803.8z M440.6,245.8c0-20.7-16.9-37.6-37.6-37.6
	c-20.7,0-37.6,16.9-37.6,37.6s16.9,37.6,37.6,37.6C423.7,282.6,440.6,265.7,440.6,245.8z"/>
</svg>
