<svg xmlns="http://www.w3.org/2000/svg" viewBox="197.1 11.5 635.1 745.7" enable-background="new 197.1 11.5 635.1 745.7"><path fill="#fff" d="M367.6 290.3h-11.5c-18.4 0-33 14.6-33 33v33h161.3v-33c0-18.4-14.6-33-33-33h-11.5c-10 6.9-22.3 10.8-36.1 10.8s-26.2-3.9-36.2-10.8zm182-91.4h190.5v23.8H549.6v-23.8zm0 72.2h190.5v23.8H549.6v-23.8zm0 71.4h190.5v23.8H549.6v-23.8zM288.5 485.4h451.6v23.8H288.5v-23.8zm0-71.4h451.6v23.8H288.5V414zm0 142.8h451.6v23.8H288.5v-23.8zm0 71.4h451.6V652H288.5v-23.8zM790 57.6H666.4V43.8c0-17.7-14.6-32.3-32.3-32.3H394.5c-17.7 0-32.3 14.6-32.3 32.3v13.8H238.6c-23 0-41.5 18.4-41.5 41.5v616.7c0 23 18.4 41.5 41.5 41.5h552.2c23 0 41.5-18.4 41.5-41.5V99.1c-.8-23.1-19.2-41.5-42.3-41.5zM389.9 39.2H638v64.5H389.9V39.2zm413.9 689.6h-579V85.2H363V99c0 17.7 14.6 32.3 32.3 32.3h238.8c17.7 0 32.3-14.6 32.3-32.3V85.2h138.2v643.6h-.8zm-363.2-483c0-20.7-16.9-37.6-37.6-37.6-20.7 0-37.6 16.9-37.6 37.6s16.9 37.6 37.6 37.6c20.7-.8 37.6-17.7 37.6-37.6z"/></svg>