<?xml version="1.0" encoding="utf-8"?>
<!-- Generator: Adobe Illustrator 18.1.1, SVG Export Plug-In . SVG Version: 6.00 Build 0)  -->
<!DOCTYPE svg PUBLIC "-//W3C//DTD SVG 1.1//EN" "http://www.w3.org/Graphics/SVG/1.1/DTD/svg11.dtd">
<svg version="1.1" id="Layer_1" xmlns="http://www.w3.org/2000/svg" xmlns:xlink="http://www.w3.org/1999/xlink" x="0px" y="0px"
	 viewBox="-308.6 258.9 30.6 30.6" enable-background="new -308.6 258.9 30.6 30.6" xml:space="preserve">
<g>
	<path d="M-293.2,289.6c8.5,0,15.3-6.9,15.3-15.3c0-8.5-6.9-15.3-15.3-15.3c-8.5,0-15.3,6.9-15.3,15.3
		C-308.6,282.7-301.7,289.6-293.2,289.6z M-288,266.9c1.4,0,2.5,1.1,2.5,2.5c0,1.4-1.1,2.5-2.5,2.5c-1.4,0-2.5-1.1-2.5-2.5
		C-290.5,268-289.4,266.9-288,266.9z M-284.5,277.2c0,3.6-3.9,6.6-8.8,6.6c-4.9,0-8.8-2.9-8.8-6.5L-284.5,277.2z M-298.5,266.9
		c1.4,0,2.5,1.1,2.5,2.5c0,1.4-1.1,2.5-2.5,2.5c-1.4,0-2.5-1.1-2.5-2.5C-301,268-299.9,266.9-298.5,266.9z"/>
</g>
</svg>
