<?xml version="1.0" encoding="utf-8"?>
<!-- Generator: Adobe Illustrator 18.1.1, SVG Export Plug-In . SVG Version: 6.00 Build 0)  -->
<!DOCTYPE svg PUBLIC "-//W3C//DTD SVG 1.1//EN" "http://www.w3.org/Graphics/SVG/1.1/DTD/svg11.dtd">
<svg version="1.1" id="Layer_1" xmlns="http://www.w3.org/2000/svg" xmlns:xlink="http://www.w3.org/1999/xlink" x="0px" y="0px"
	 viewBox="0 0 34 34" enable-background="new 0 0 34 34" xml:space="preserve">
<path fill="#47B753" d="M17,34c9.4,0,17-7.6,17-17c0-9.4-7.6-17-17-17C7.6,0,0,7.6,0,17C0,26.4,7.6,34,17,34"/>
<path fill="#FFFFFF" d="M24.6,10.6c-0.7-0.4-1.8,0.3-2.5,1.4L21,14.1c-0.5,0.9-0.4,1.9,0.2,2.7l0.1,0.1c0.5,0.8,1.3,1.5,1.6,1.8
	c0.1,0.1,0.3,0.3,0.3,0.6c0.2,0.8-0.2,1.4-1,1.7c-0.8,0.2-1.4-0.2-1.7-1c-0.1-0.2-0.1-0.4-0.1-0.5c0.1-0.3-0.1-0.8-0.5-1.2
	c-0.5-0.5-1.3,0.4-1.6,1.4v0.1c-0.3,1-0.5,1.8-0.4,1.8c0,0.1,0.1,0.1,0.1,0.1c0.4,0.8,0.1,1.7-0.7,2.1c-0.8,0.4-1.7,0.1-2.1-0.7
	c-0.4-0.8-0.1-1.7,0.7-2.1c0.1,0,0.1-0.1,0.1-0.1c0.1,0,0.2-0.4,0.3-0.9c0.1-0.5,0.3-0.9,0.3-0.9c0-0.1,0-0.1,0.1-0.1l0.8-2.7
	l-0.8,1.6c-0.1-0.3-0.3-0.3-0.6-0.1c-0.2,0.1-0.5,0.5-0.8,0.6c-0.3,0.2-0.6,0.7-0.8,1c-0.1,0.1-0.2,0.3-0.3,0.4
	c-0.6,0.5-1.4,0.4-1.9-0.2c-0.5-0.6-0.4-1.4,0.2-1.9c0.2-0.1,0.4-0.2,0.6-0.3c0.3-0.1,1.5-0.8,2.2-1.3c0.1-0.1,0.3-0.2,0.3-0.3
	l1.8-1.4l-1.6,0.9h-0.4c-0.6,0.1-1.2,0.1-1.3,0.3c-0.1,0.1-0.1,0.2-0.3,0.3c-0.5,0.4-1.3,0.3-1.7-0.3c-0.4-0.5-0.3-1.3,0.3-1.7
	c0.2-0.1,0.5-0.3,0.8-0.2c0.5,0,1.6,0.3,2.6,0.1l0.3-0.1c1-0.2,2.1-1,2.6-1.8c0,0,0.5-0.8,1-1.8s0.5-2-0.1-2.4L18.5,7
	c-0.5-0.3-1.4-0.3-2,0l-7.6,4.2c-0.5,0.3-1,1.1-1,1.7v8.3c0,0.7,0.5,1.4,1,1.7l7.6,4.2c0.5,0.3,1.4,0.3,2,0L26,23
	c0.5-0.3,1-1.1,1-1.7V13c0-0.7-0.5-1.4-1-1.7C25.8,11.3,25.3,11,24.6,10.6L24.6,10.6z"/>
</svg>
