<svg xmlns="http://www.w3.org/2000/svg" viewBox="377.4 -1.9 709.9 766.7" enable-background="new 377.4 -1.9 709.9 766.7"><path d="M998.9 138.9c-25.3-15.2-65.7 10.1-90.9 50.5l-43 78.4c-17.7 32.8-15.2 70.7 7.6 101.1l2.5 2.5c20.2 30.3 48 55.6 58.1 65.7 5.1 5.1 10.1 12.6 12.6 22.7 7.6 27.8-7.6 53.1-35.4 63.2-27.8 7.6-53.1-7.6-63.2-35.4-2.5-7.6-2.5-15.2-2.5-20.2 2.5-12.6-2.5-30.3-17.7-45.5-17.7-17.7-48 15.2-58.1 50.5v2.5c-10.1 35.4-17.7 65.7-15.2 68.2 0 2.5 2.5 2.5 2.5 5.1 15.2 27.8 5.1 63.2-25.3 78.3-27.8 15.2-63.2 5.1-78.3-25.3-15.2-27.8-5.1-63.2 25.3-78.3 2.5 0 2.5-2.5 5.1-2.5 2.5 0 7.6-15.2 12.6-32.8 5.1-17.7 10.1-32.8 10.1-32.8 0-2.5 0-2.5 2.5-5.1l30.3-101.1-30.3 60.6c-2.5-12.6-10.1-12.6-22.7-2.5-7.6 5.1-20.2 17.7-27.8 22.7-12.6 7.6-22.7 25.3-27.8 35.4-2.5 5.1-7.6 12.6-12.6 15.2-22.7 17.7-53.1 15.2-70.7-7.6-17.7-22.7-15.2-53.1 7.6-70.7 7.6-5.1 15.2-7.6 22.7-10.1 12.6-2.5 55.6-30.3 80.8-48 5.1-2.5 10.1-7.6 12.6-10.1l68.2-53.1-60.5 32.9h-15.2c-22.7 2.5-42.9 5.1-48 12.6-2.5 2.5-5.1 7.6-10.1 10.1-20.2 15.2-48 10.1-63.2-10.1-15.2-20.2-10.1-48 10.1-63.2 7.6-5.1 17.7-10.1 27.8-7.6 17.7 0 58.1 10.1 96 2.5l10.1-2.5c37.9-7.6 78.3-37.9 96-68.2 0 0 17.7-30.3 37.9-65.7 20.2-35.4 20.2-75.8-2.5-88.4L771.5 7.6C751.3-5 718.4-5 698.2 7.6L415.3 164.2c-20.2 12.6-37.9 40.4-37.9 63.2v308.2c0 25.3 17.7 50.5 37.9 63.2l280.4 156.6c20.2 12.6 53.1 12.6 73.3 0l280.4-156.6c20.2-12.6 37.9-40.4 37.9-63.2V229.9c0-25.3-17.7-50.5-37.9-63.2-5 0-25.3-12.6-50.5-27.8z"/></svg>