<svg xmlns="http://www.w3.org/2000/svg" viewBox="-493.7 373 29.4 23.9" enable-background="new -493.7 373 29.4 23.9"><path stroke="#449FDB" d="M-495 369"/><path d="M-464.3 375.9c-1.1.5-2.2.8-3.5 1 1.2-.7 2.2-1.9 2.7-3.3-1.2.7-2.5 1.2-3.8 1.5-1.1-1.2-2.7-1.9-4.4-1.9-3.3 0-6 2.7-6 6 0 .5.1.9.2 1.4-5-.2-9.5-2.7-12.5-6.3-.5.9-.8 1.9-.8 3 0 2.1 1.1 3.9 2.7 5-1 0-1.9-.3-2.7-.8v.1c0 2.9 2.1 5.4 4.8 5.9-.5.1-1 .2-1.6.2-.4 0-.8 0-1.1-.1.8 2.4 3 4.1 5.6 4.2-2.1 1.6-4.7 2.6-7.5 2.6-.5 0-1 0-1.4-.1 2.7 1.7 5.8 2.7 9.3 2.7 11.1 0 17.2-9.2 17.2-17.2v-.8c1-.9 2-1.9 2.8-3.1z"/></svg>